<svg xmlns="http://www.w3.org/2000/svg" viewBox="0 0 157.1 38.3" enable-background="new 0 0 157.1 38.3"><path d="M0 1.1h7.6v29.7h18.1v6.5h-25.7v-36.2zM63.9 34.1c-2.7 2.8-6.7 4.2-11.9 4.2s-9.1-1.4-11.9-4.2c-3.7-3.5-5.5-8.4-5.5-14.9 0-6.6 1.8-11.6 5.5-14.9 2.8-2.9 6.7-4.3 11.9-4.3s9.1 1.4 11.9 4.2c3.7 3.3 5.5 8.3 5.5 14.9-.1 6.6-1.9 11.6-5.5 15zm-4.8-5.5c1.8-2.2 2.6-5.4 2.6-9.4 0-4.1-.9-7.2-2.6-9.4s-4.1-3.4-7.1-3.4-5.4 1.1-7.2 3.3c-1.8 2.2-2.7 5.4-2.7 9.4s.9 7.2 2.7 9.4 4.2 3.3 7.2 3.3c3 .1 5.4-1 7.1-3.2zM104.7 12.4c-.6-2.5-2-4.2-4.2-5.2-1.2-.5-2.6-.8-4.2-.8-2.9 0-5.3 1.1-7.2 3.3-1.9 2.2-2.8 5.5-2.8 9.9s1 7.6 3 9.4c2 1.8 4.3 2.8 6.9 2.8 2.5 0 4.6-.7 6.2-2.2 1.6-1.5 2.6-3.4 3-5.7h-8.4v-6h15.1v19.4h-5l-.8-4.5c-1.5 1.7-2.8 2.9-3.9 3.6-2 1.2-4.5 1.8-7.4 1.8-4.8 0-8.7-1.7-11.8-5-3.2-3.3-4.8-7.9-4.8-13.7 0-5.9 1.6-10.6 4.8-14.1 3.2-3.5 7.5-5.3 12.8-5.3 4.6 0 8.3 1.2 11.1 3.5s4.4 5.2 4.8 8.7c.2.1-7.2.1-7.2.1zM151.6 34.1c-2.7 2.8-6.7 4.2-11.9 4.2s-9.1-1.4-11.9-4.2c-3.7-3.5-5.5-8.4-5.5-14.9 0-6.6 1.8-11.6 5.5-14.9 2.7-2.8 6.7-4.2 11.9-4.2s9.1 1.4 11.9 4.2c3.7 3.3 5.5 8.3 5.5 14.9 0 6.5-1.9 11.5-5.5 14.9zm-4.8-5.5c1.8-2.2 2.6-5.4 2.6-9.4 0-4.1-.9-7.2-2.6-9.4s-4.1-3.3-7.1-3.3-5.4 1.1-7.2 3.3c-1.8 2.2-2.7 5.4-2.7 9.4s.9 7.2 2.7 9.4 4.2 3.3 7.2 3.3 5.4-1.1 7.1-3.3z"/></svg>