<svg xmlns="http://www.w3.org/2000/svg" viewBox="0 0 404.62 64.94"><defs><style>.cls-1{fill:#106ee8;}</style></defs><title>Zeichenfläche 1</title><path class="cls-1" d="M13.09 50.42a17 17 0 0 1-11.55-4.19l3.71-5.23a11 11 0 0 0 7.9 3.34c2.22 0 3.51-1 3.51-2.37s-1.48-2-5.19-3.17c-4.71-1.58-8.79-3.8-8.79-9.31 0-5.16 4.45-8.56 10.27-8.56a16.08 16.08 0 0 1 10.44 3.59l-3.71 5.59a10.19 10.19 0 0 0-6.82-3c-1.25 0-2.79.66-2.79 2.14 0 1.2 1.48 2 4.28 3.08 6.19 2.28 9.81 3.62 9.81 9.24 0 5-3.59 8.87-11.07 8.87zM64.83 20.93c6.19 0 10.07 3.74 10.07 12.43v16.64h-7.64v-14.78c0-4.56-1.4-7.41-5-7.41-3.22 0-5.82 2.77-5.82 7.87v14.32h-7.64v-14.78c0-4.56-1.48-7.41-5-7.41s-6 2.77-6 7.87v14.26h-7.71v-28.52h7.64v3.77h.09a11 11 0 0 1 8.53-4.25c3.77 0 6.73 1.43 8.47 4.59h.09a12.2 12.2 0 0 1 9.92-4.59zM108.74 35.42a14.55 14.55 0 0 1-.2 2.74h-20a7.18 7.18 0 0 0 7.27 5.48 8.45 8.45 0 0 0 6.82-3.22l5 4.62c-2.42 3.08-6.59 5.39-12.32 5.39-8.36 0-14.69-5.87-14.69-14.77 0-8.67 6-14.72 14.15-14.72 8.38 0 14 6.13 14 14.49zm-20.16-2.77h12.58c-.77-3-2.85-5-6.16-5a6.28 6.28 0 0 0-6.42 5zM139.83 21.42l-15.37 40.07h-7.81l5.08-13.32-11.42-26.75h8l7 17.65h.09l6.53-17.65zM156 38.59l-4 4.54v6.82h-7.64v-43h7.64v26l10.18-11.49h9l-10.06 11.31 10.24 17.17h-8.53l-6.83-11.35zM201.24 35.42a14.55 14.55 0 0 1-.2 2.74h-20.04a7.18 7.18 0 0 0 7.27 5.48 8.45 8.45 0 0 0 6.82-3.22l5 4.62c-2.42 3.08-6.59 5.39-12.32 5.39-8.36 0-14.69-5.87-14.69-14.77 0-8.67 6-14.72 14.15-14.72 8.38 0 14 6.13 14 14.49zm-20.16-2.77h12.58c-.77-3-2.85-5-6.16-5a6.28 6.28 0 0 0-6.42 5zM250.58 21.42l-11.21 28.52h-7.13l-11.24-28.52h8.07l6.7 19.17h.09l6.56-19.17zM254.28 12.72a4.73 4.73 0 1 1 4.72 4.68 4.7 4.7 0 0 1-4.72-4.68zm.91 8.7h7.64v28.52h-7.64zM279.9 50.42a17 17 0 0 1-11.55-4.19l3.7-5.23a11 11 0 0 0 7.9 3.34c2.22 0 3.51-1 3.51-2.37s-1.48-2-5.19-3.17c-4.71-1.54-8.78-3.76-8.78-9.27 0-5.16 4.45-8.56 10.27-8.56a16.08 16.08 0 0 1 10.44 3.59l-3.71 5.59a10.19 10.19 0 0 0-6.82-3c-1.25 0-2.79.66-2.79 2.14 0 1.2 1.48 2 4.28 3.08 6.19 2.28 9.81 3.62 9.81 9.24 0 5-3.59 8.87-11.07 8.87zM323.07 21.42v28.52h-7.64v-3.48h-.11a10.94 10.94 0 0 1-8.47 4c-6.16 0-10.49-3.14-10.49-11.83v-17.21h7.64v15.17c0 5.25 1.54 7 5.1 7 3.34 0 6.33-2.77 6.33-8.3v-13.87zM358.63 21.42v28.52h-7.27v-3.45h-.14a10.28 10.28 0 0 1-8.53 3.94c-7.9 0-13.66-5.85-13.66-14.66s5.79-14.83 13.43-14.83a10.76 10.76 0 0 1 8.41 3.71h.13v-3.23zm-7.33 14.37c0-4.56-3.05-8-7.19-8s-7.33 3.11-7.33 8c0 4.62 3 7.79 7.3 7.79 3.92 0 7.22-3.11 7.22-7.79zM366.25 6.93h7.64v43h-7.64zM391 50.42a17 17 0 0 1-11.55-4.19l3.68-5.23a11 11 0 0 0 7.9 3.34c2.22 0 3.51-1 3.51-2.37s-1.48-2-5.19-3.17c-4.71-1.54-8.78-3.76-8.78-9.27 0-5.16 4.45-8.56 10.27-8.56a16.08 16.08 0 0 1 10.44 3.59l-3.71 5.59a10.19 10.19 0 0 0-6.82-3c-1.25 0-2.79.66-2.79 2.14 0 1.2 1.48 2 4.28 3.08 6.19 2.28 9.81 3.62 9.81 9.24 0 5-3.59 8.87-11.07 8.87z"/></svg>